<?xml version="1.0" encoding="UTF-8" standalone="no"?>
<!-- Created with Inkscape (http://www.inkscape.org/) -->

<svg
   xmlns:osb="http://www.openswatchbook.org/uri/2009/osb"
   xmlns:dc="http://purl.org/dc/elements/1.1/"
   xmlns:cc="http://creativecommons.org/ns#"
   xmlns:rdf="http://www.w3.org/1999/02/22-rdf-syntax-ns#"
   xmlns:svg="http://www.w3.org/2000/svg"
   xmlns="http://www.w3.org/2000/svg"
   xmlns:sodipodi="http://sodipodi.sourceforge.net/DTD/sodipodi-0.dtd"
   xmlns:inkscape="http://www.inkscape.org/namespaces/inkscape"
   inkscape:export-ydpi="90.000000"
   inkscape:export-xdpi="90.000000"
   width="24"
   height="24"
   id="svg11300"
   sodipodi:version="0.32"
   inkscape:version="0.92.3 (2405546, 2018-03-11)"
   sodipodi:docname="activities.svg"
   inkscape:output_extension="org.inkscape.output.svg.inkscape"
   version="1.0"
   style="display:inline;enable-background:new">
  <sodipodi:namedview
     stroke="#ef2929"
     fill="#f57900"
     id="base"
     pagecolor="#bebebe"
     bordercolor="#525252"
     borderopacity="1"
     inkscape:pageopacity="1"
     inkscape:pageshadow="2"
     inkscape:zoom="16"
     inkscape:cx="21.725627"
     inkscape:cy="13.802283"
     inkscape:current-layer="layer1"
     showgrid="true"
     inkscape:grid-bbox="true"
     inkscape:document-units="px"
     inkscape:showpageshadow="true"
     inkscape:window-width="1315"
     inkscape:window-height="740"
     inkscape:window-x="51"
     inkscape:window-y="28"
     width="400px"
     height="300px"
     inkscape:snap-nodes="true"
     inkscape:snap-bbox="true"
     gridtolerance="10000"
     inkscape:object-nodes="true"
     inkscape:snap-grids="true"
     showguides="false"
     inkscape:guide-bbox="true"
     inkscape:window-maximized="1"
     inkscape:bbox-nodes="true"
     inkscape:bbox-paths="false"
     inkscape:snap-bbox-edge-midpoints="false"
     inkscape:snap-bbox-midpoints="false"
     objecttolerance="10000"
     guidetolerance="10000"
     borderlayer="true"
     showborder="true"
     guidecolor="#ff0b00"
     guideopacity="1"
     guidehicolor="#001aff"
     guidehiopacity="0.49803922">
    <inkscape:grid
       type="xygrid"
       id="grid3123"
       empspacing="4"
       visible="true"
       enabled="true"
       snapvisiblegridlinesonly="true" />
    <sodipodi:guide
       position="12,12"
       orientation="1,0"
       id="guide4135"
       inkscape:locked="false" />
  </sodipodi:namedview>
  <defs
     id="defs3">
    <linearGradient
       id="selected_bg_color"
       osb:paint="solid">
      <stop
         style="stop-color:#5294e2;stop-opacity:1;"
         offset="0"
         id="stop4140" />
    </linearGradient>
  </defs>
  <metadata
     id="metadata4">
    <rdf:RDF>
      <cc:Work
         rdf:about="">
        <dc:format>image/svg+xml</dc:format>
        <dc:type
           rdf:resource="http://purl.org/dc/dcmitype/StillImage" />
        <dc:creator>
          <cc:Agent>
            <dc:title />
          </cc:Agent>
        </dc:creator>
        <dc:source />
        <cc:license
           rdf:resource="" />
        <dc:title></dc:title>
        <dc:subject>
          <rdf:Bag />
        </dc:subject>
        <dc:date />
        <dc:rights>
          <cc:Agent>
            <dc:title />
          </cc:Agent>
        </dc:rights>
        <dc:publisher>
          <cc:Agent>
            <dc:title />
          </cc:Agent>
        </dc:publisher>
        <dc:identifier />
        <dc:relation />
        <dc:language />
        <dc:coverage />
        <dc:description />
        <dc:contributor>
          <cc:Agent>
            <dc:title />
          </cc:Agent>
        </dc:contributor>
      </cc:Work>
      <cc:Work
         rdf:about="">
        <dc:format>image/svg+xml</dc:format>
        <dc:type
           rdf:resource="http://purl.org/dc/dcmitype/StillImage" />
      </cc:Work>
    </rdf:RDF>
  </metadata>
  <g
     style="display:inline"
     inkscape:groupmode="layer"
     inkscape:label="Base"
     id="layer1"
     transform="translate(0,-276)">
    <path
       style="fill:#ffffff;stroke-width:0.04394531"
       d="m 9.2058256,298.66455 c -0.8398339,-0.31009 -1.3675194,-0.61977 -2.0456845,-1.20053 -1.8880857,-1.61691 -3.1858183,-4.36779 -3.3646137,-7.13219 -0.029655,-0.45849 -0.018843,-1.12764 0.02534,-1.56839 0.084739,-0.84531 0.221912,-1.37622 0.961487,-3.72129 0.093011,-0.29492 0.1692315,-0.58206 0.1693776,-0.6381 3.888e-4,-0.14732 0.7468761,-1.19923 1.3012131,-1.8336 0.2647599,-0.30298 0.3447394,-0.36829 0.5119662,-0.41804 0.1641651,-0.0487 0.2395173,-0.10852 0.4390146,-0.34771 0.3749446,-0.44955 0.518332,-0.5976 0.5979185,-0.61735 0.040433,-0.0101 0.1324309,-0.0839 0.2044484,-0.16418 0.1697829,-0.18923 0.478539,-0.37322 1.2436565,-0.74111 0.3419063,-0.16439 0.6627536,-0.31918 0.712995,-0.34396 0.072618,-0.0359 0.089362,-0.0291 0.081685,0.033 -0.0086,0.0696 0.01417,0.0682 0.211176,-0.013 0.431005,-0.17778 1.386215,-0.37309 2.277605,-0.46568 0.554979,-0.0577 0.880356,-0.0725 0.917843,-0.0418 0.03194,0.0261 0.237743,0.0735 0.45732,0.10545 l 0.399253,0.0578 -0.211896,0.0583 -0.211895,0.0583 0.213573,0.04 c 0.117423,0.0222 0.30272,0.0799 0.41163,0.129 0.167761,0.0755 0.187344,0.0962 0.128207,0.13507 -0.06037,0.0396 -0.04863,0.0542 0.08683,0.10756 0.08616,0.0339 0.307064,0.0842 0.490912,0.11156 0.183864,0.0273 0.426584,0.0921 0.539522,0.14303 0.164123,0.0746 0.20963,0.0796 0.227195,0.0248 0.01689,-0.0527 0.07024,-0.0339 0.230966,0.0811 0.114964,0.0822 0.349984,0.24774 0.522285,0.36771 0.1723,0.11998 0.453746,0.35093 0.625436,0.51322 0.287899,0.27211 0.332127,0.29746 0.568893,0.32604 0.322295,0.0389 0.536849,0.15627 0.576295,0.31521 0.03375,0.13601 0.378011,0.62306 0.431077,0.60989 0.01933,-0.005 0.02604,-0.0523 0.01494,-0.1056 -0.02906,-0.14005 0.361251,0.34909 0.640865,0.80312 0.39537,0.64198 0.618035,1.1734 0.809399,1.93172 0.12243,0.48516 0.218107,1.21794 0.144018,1.10302 -0.05641,-0.0875 -0.09608,-0.0362 -0.130167,0.16815 -0.01838,0.11041 -0.04953,0.23529 -0.06916,0.27751 -0.01962,0.0422 -0.03406,0.1171 -0.03198,0.16642 0.002,0.0493 -0.04004,-0.12344 -0.09352,-0.38386 -0.08775,-0.42725 -0.102445,-0.4664 -0.150572,-0.40106 -0.04436,0.0602 -0.07478,0.0649 -0.180865,0.0277 -0.16388,-0.0574 -0.218252,0.0108 -0.22638,0.28419 -0.0062,0.20904 0.05242,0.35449 0.116474,0.28895 0.07083,-0.0725 0.09289,0.19593 0.05025,0.61166 -0.03495,0.34078 -0.05143,0.39689 -0.08778,0.29892 -0.114884,-0.30974 -0.188936,-0.0794 -0.124025,0.38579 0.02261,0.16208 0.01559,0.25649 -0.0197,0.26525 -0.05688,0.0141 -0.170787,0.48494 -0.14372,0.59401 0.0085,0.0341 0.05076,0.0664 0.09394,0.0718 0.06424,0.008 0.0542,0.0416 -0.05583,0.18554 -0.07391,0.0967 -0.202618,0.29081 -0.28603,0.43133 -0.149472,0.25184 -0.152078,0.25384 -0.181014,0.13844 l -0.02938,-0.11707 -0.05242,0.14842 c -0.02883,0.0816 -0.08014,0.15548 -0.114015,0.16413 -0.0339,0.009 -0.100114,0.111 -0.147189,0.22746 -0.08476,0.20966 -0.335952,0.56587 -0.541649,0.76808 -0.0586,0.0575 -0.10044,0.12941 -0.09297,0.15953 0.0075,0.0301 -0.0267,0.0647 -0.07597,0.077 -0.04927,0.0123 -0.138627,0.10369 -0.198591,0.20325 l -0.109019,0.181 -0.0362,-0.14588 -0.03621,-0.14589 -0.158687,0.13597 c -0.18265,0.1565 -0.312541,0.33703 -0.294581,0.4094 0.0068,0.0274 -0.02169,0.0972 -0.06341,0.15498 L 17,292.10309 l 0.05743,-0.11612 c 0.05712,-0.11551 0.05688,-0.11599 -0.04499,-0.09 -0.05634,0.0144 -0.219875,0.0865 -0.363432,0.16026 -0.650486,0.33434 -1.718696,0.74914 -2.10622,0.81784 -0.143147,0.0254 -0.146235,0.0233 -0.05414,-0.0358 0.05371,-0.0345 0.200382,-0.12075 0.325948,-0.19178 0.139417,-0.0788 0.222512,-0.15246 0.213431,-0.18905 -0.02905,-0.11705 -0.195476,-0.0681 -0.555359,0.16331 -0.222231,0.14291 -0.456295,0.25888 -0.599233,0.2969 -0.223677,0.0595 -0.257701,0.0536 -0.733548,-0.12791 -0.647373,-0.24685 -0.956604,-0.42382 -1.486586,-0.85077 -0.238471,-0.19211 -0.441784,-0.35575 -0.45181,-0.36364 -0.01,-0.008 -0.02709,5.4e-4 -0.03782,0.0182 -0.01074,0.0179 0.135894,0.18105 0.325931,0.36257 0.398705,0.38088 0.960918,0.7393 1.422354,0.90679 0.342581,0.12437 0.344645,0.12173 -0.104644,0.13351 -0.170574,0.005 -0.0767,0.0438 0.468198,0.19611 0.273878,0.0766 0.486556,0.14232 0.472589,0.14618 -0.04466,0.0121 -1.405103,-0.13097 -1.518061,-0.15973 -0.17308,-0.0439 -0.143009,-0.0974 0.07073,-0.12553 0.271647,-0.0358 0.231389,-0.099 -0.09267,-0.14532 -0.14843,-0.0214 -0.435705,-0.0688 -0.638334,-0.10562 -0.202657,-0.0367 -0.376506,-0.0536 -0.386422,-0.037 -0.0099,0.0164 0.01699,0.0688 0.0598,0.11637 0.06959,0.0772 0.0692,0.0823 -0.0038,0.0474 -0.173572,-0.0831 -0.546693,-0.41492 -0.912502,-0.81158 -0.3986913,-0.4323 -0.6114239,-0.80969 -0.6065448,-1.076 0.00199,-0.10851 0.014976,-0.0969 0.1196688,0.10729 0.1099238,0.21428 0.529807,0.67445 0.5996,0.65713 0.01722,-0.004 -0.02773,-0.0909 -0.100074,-0.19258 -0.289153,-0.40611 -0.8018567,-1.2147 -0.9971714,-1.57264 -0.2029964,-0.372 -0.3580548,-0.7111 -0.3126706,-0.68376 0.012709,0.008 0.2450933,0.36467 0.5165149,0.79346 0.4226068,0.6676 0.9656781,1.39538 0.8113291,1.08727 -0.02773,-0.0555 -0.08255,-0.18441 -0.121797,-0.28672 l -0.07136,-0.18606 0.124197,0.1503 c 0.215885,0.26124 0.810781,0.79736 0.815677,0.73509 0.0026,-0.0329 -0.214475,-0.36609 -0.482348,-0.74055 -0.267875,-0.37447 -0.567599,-0.81876 -0.6660542,-0.98732 -0.098456,-0.16857 -0.1943585,-0.30267 -0.2131168,-0.29802 -0.01881,0.005 0.00377,0.16716 0.050051,0.36113 l 0.084158,0.35266 -0.1852902,-0.27097 c -0.1622209,-0.23722 -0.202016,-0.33728 -0.3196161,-0.8036 -0.1239791,-0.49162 -0.1313342,-0.56552 -0.095502,-0.95937 0.021352,-0.2347 0.074391,-0.58339 0.1178668,-0.77489 0.072705,-0.32019 0.2975222,-1.01657 0.3308677,-1.02485 0.00793,-0.002 -0.013377,0.2106 -0.047149,0.47234 -0.033773,0.26172 -0.048433,0.50387 -0.032582,0.53813 0.015862,0.0342 0.1313032,-0.23746 0.256555,-0.6038 0.1493539,-0.43681 0.3031079,-0.78508 0.4467429,-1.01193 0.137127,-0.21655 0.195986,-0.34767 0.157428,-0.3507 -0.03387,-0.003 -0.277039,0.18073 -0.540381,0.40755 -0.2633393,0.22682 -0.4806808,0.40482 -0.4829819,0.39556 -0.011649,-0.047 0.077943,-0.34726 0.1542022,-0.51674 0.1653632,-0.36751 0.5663817,-0.72214 1.0479107,-0.92669 0.247381,-0.10508 0.316616,-0.11675 0.612854,-0.10332 0.261573,0.0118 0.384906,-0.004 0.568961,-0.0753 0.129253,-0.0498 0.214671,-0.10146 0.189832,-0.11488 -0.02487,-0.0133 -0.197709,-0.0233 -0.384157,-0.0221 -0.331458,0.002 -0.335992,7.4e-4 -0.203958,-0.0713 0.240221,-0.131 0.04554,-0.1506 -0.469509,-0.0473 -0.584955,0.11733 -0.451517,0.0402 0.365206,-0.21135 0.61245,-0.18857 1.450004,-0.32371 1.828473,-0.29504 0.139586,0.0106 0.398063,-0.002 0.574394,-0.0281 0.176323,-0.026 0.375474,-0.0446 0.442554,-0.0412 0.101042,0.005 0.08564,0.0156 -0.09024,0.0633 -0.246575,0.0665 -0.395127,0.1411 -0.382443,0.19222 0.01002,0.0405 0.168565,0.0481 0.754802,0.0367 0.222281,-0.005 0.49308,0.0184 0.601766,0.0504 0.392196,0.1157 0.978745,0.57336 1.037338,0.80943 0.0087,0.0352 -0.04451,-0.0122 -0.118277,-0.10567 -0.221479,-0.28007 -0.441576,-0.38716 -0.303681,-0.14779 0.0614,0.1066 0.06022,0.12114 -0.0092,0.11253 -0.04382,-0.006 -0.198603,-0.0132 -0.343931,-0.0172 -0.243427,-0.007 -0.279976,0.002 -0.464099,0.11593 -0.190939,0.1178 -0.208273,0.12136 -0.387781,0.0797 -0.182985,-0.0429 -0.199811,-0.0392 -0.650801,0.14496 -0.762173,0.31061 -0.802209,0.28222 -0.214812,-0.15233 0.278608,-0.20613 0.502929,-0.39007 0.498489,-0.40877 -0.01064,-0.0448 -0.172275,0.0302 -1.035016,0.48035 -0.573402,0.29918 -0.800349,0.39623 -1.105202,0.4727 -0.571964,0.14345 -0.846512,0.40702 -1.077726,1.0346 -0.09849,0.26735 -0.288315,1.03246 -0.272216,1.09727 0.0043,0.0176 0.130171,-0.16974 0.279553,-0.4163 l 0.271614,-0.44831 -0.138304,0.61998 c -0.22317,1.00041 -0.315837,1.90051 -0.24901,2.41885 0.03722,0.28878 0.09454,0.30959 0.306372,0.11118 0.202751,-0.18989 0.244494,-0.18323 0.360014,0.0574 0.123771,0.25788 0.548336,0.8322 0.824059,1.11474 0.385087,0.39459 0.856571,0.69536 1.216207,0.77583 0.161531,0.0364 0.329105,0.0571 0.372288,0.0463 0.04316,-0.0107 0.0825,-0.003 0.08745,0.016 0.0048,0.0197 0.148626,0.0266 0.319422,0.0151 0.278809,-0.0186 0.426928,-0.0613 0.646627,-0.18655 0.04461,-0.0254 0.07125,-0.0184 0.07274,0.0191 0.004,0.10387 0.383657,-7.1e-4 1.039754,-0.28653 0.594885,-0.25911 0.624129,-0.27731 0.702802,-0.43737 0.179706,-0.3656 0.21339,-0.40335 0.401679,-0.45008 0.151309,-0.0375 0.21212,-0.0861 0.368048,-0.2938 0.266641,-0.3552 0.593436,-1.01179 0.410337,-0.82445 -0.0221,0.0226 0.02776,-0.13628 0.110777,-0.35309 0.197146,-0.51482 0.461522,-1.39752 0.452382,-1.51042 -0.0039,-0.0488 0.01727,-0.28081 0.04717,-0.51552 0.158186,-1.24197 -0.305877,-2.79628 -1.17751,-3.94385 -0.641432,-0.8445 -1.814235,-1.52642 -3.064196,-1.78169 -0.225896,-0.0461 -0.435955,-0.10339 -0.466779,-0.12731 -0.03083,-0.0239 -0.19343,-0.0633 -0.361316,-0.0875 -0.240922,-0.0348 -0.419507,-0.0238 -0.84739,0.052 -0.298178,0.0528 -0.614048,0.0932 -0.701937,0.0895 -0.08789,-0.004 -0.185509,-1.8e-4 -0.216943,0.008 -0.105375,0.0262 -2.62e-4,0.10642 0.161295,0.12322 0.08788,0.009 0.129274,0.0257 0.09189,0.0369 -0.03738,0.0112 -0.224353,-0.003 -0.415487,-0.0321 -0.432315,-0.0652 -0.676153,-0.0368 -1.032387,0.12049 -0.345399,0.15246 -0.37629,0.18304 -0.229409,0.22708 l 0.11667,0.035 -0.111772,0.005 c -0.06146,0.003 -0.203687,0.005 -0.3160076,0.004 -0.5144803,-0.004 -1.7113815,0.54016 -2.6362043,1.2005 -0.2830606,0.20212 -0.3103081,0.23344 -0.2399132,0.27585 0.098788,0.0595 0.084652,0.079 -0.4851981,0.66976 -0.2277791,0.23614 -0.4499441,0.48243 -0.4937011,0.54734 -0.07562,0.11214 -0.8260755,1.87265 -0.9318014,2.18592 -0.2044369,0.60576 -0.2897307,1.11943 -0.227509,1.37013 0.022418,0.0903 -2.232e-4,0.21516 -0.066889,0.36902 -0.05937,0.13703 -0.088779,0.28184 -0.071591,0.35255 0.040603,0.16706 0.033132,0.32615 -0.014598,0.31085 -0.054225,-0.0173 -0.033602,0.4027 0.034596,0.70493 0.050952,0.2258 0.071567,0.25668 0.2528936,0.37884 0.1943075,0.13094 0.1987507,0.1385 0.2817246,0.48547 0.046366,0.19387 0.078901,0.39407 0.072297,0.44489 -0.010075,0.0775 -0.030147,0.0641 -0.1240755,-0.0825 l -0.1120769,-0.17478 -0.00608,0.18263 c -0.00336,0.10049 0.037319,0.35793 0.090363,0.57223 0.087535,0.35363 0.089079,0.39361 0.016678,0.43309 -0.08849,0.0482 -0.078981,0.13465 0.037013,0.33604 0.06304,0.10949 0.066899,0.14754 0.020536,0.20302 -0.049597,0.0593 -0.037464,0.13091 0.092838,0.54712 0.236406,0.75513 0.306716,0.92367 0.3675954,0.88114 0.051893,-0.0363 0.063153,0.0202 0.056996,0.28991 -0.00101,0.0449 0.047294,0.22204 0.107347,0.39359 0.097395,0.27824 0.1225505,0.31519 0.2329441,0.34213 0.098372,0.0244 0.1476377,0.0804 0.2405571,0.27544 0.095599,0.20071 0.2363265,0.40538 0.4372243,0.63589 0.013391,0.0153 -0.00118,0.0346 -0.032382,0.0427 -0.031187,0.008 -0.079844,0.039 -0.1080953,0.0685 -0.042442,0.0443 -0.024828,0.075 0.100977,0.17593 0.083813,0.0672 0.208774,0.19572 0.2777027,0.2856 0.1772628,0.23112 0.4884645,0.48281 0.51081,0.41313 0.00995,-0.031 0.088041,0.0796 0.1735263,0.24594 0.2959208,0.57571 0.5367582,0.77807 1.6358987,1.3746 0.1295093,0.0703 0.225705,0.12946 0.2137688,0.13149 -0.011855,0.002 -0.2259385,-0.0716 -0.4755475,-0.16384 z m 5.6186194,-8.60231 c -0.03086,-0.0442 -0.0079,-0.0656 0.09718,-0.0906 0.130266,-0.031 0.134023,-0.0283 0.07037,0.0505 -0.08483,0.1049 -0.116945,0.1126 -0.167545,0.0401 z m -1.657153,0.18584 c -0.129192,-0.0795 -0.227955,-0.15605 -0.219463,-0.17014 0.0084,-0.0141 0.114349,0.01 0.235236,0.0526 0.120907,0.0429 0.278649,0.087 0.350562,0.0978 0.176344,0.0262 0.180433,0.0869 0.009,0.12949 -0.109965,0.0273 -0.191313,0.004 -0.375297,-0.10967 z m -4.5904026,0.35729 c -0.233177,-0.28729 -0.4206159,-0.61056 -0.3155714,-0.54426 0.028324,0.0179 0.1745969,0.1398 0.3250607,0.27094 0.1504535,0.13119 0.3415138,0.26665 0.4245568,0.30111 l 0.1509764,0.0627 -0.1282027,0.086 c -0.070516,0.0473 -0.1488061,0.0926 -0.1739859,0.10081 -0.025181,0.008 -0.1524652,-0.1166 -0.2828439,-0.27725 z m 7.3341386,-1.96517 c -0.01013,-0.14179 0.02966,-0.23362 0.110697,-0.25543 0.03292,-0.009 -0.0075,0.18999 -0.0678,0.33309 -0.02485,0.059 -0.03436,0.0418 -0.04289,-0.0777 z m -7.2914161,0.86037 c -0.1112521,-0.3295 -0.1247572,-0.40675 -0.083166,-0.4758 0.044834,-0.0745 0.054319,-0.0618 0.097573,0.13044 0.026357,0.11709 0.063781,0.3312 0.083166,0.47581 l 0.035243,0.26293 z m 7.5526481,-4.30449 c -0.01027,-0.0502 -0.0027,-0.0628 0.01937,-0.0322 0.01997,0.0277 0.02758,0.0649 0.01693,0.0825 -0.0107,0.0177 -0.02698,-0.005 -0.03629,-0.0504 z M 5.2217324,283.05127 c 0.013298,-0.0525 0.061456,-0.12825 0.1069888,-0.16826 0.069012,-0.0606 0.067458,-0.0453 -0.00935,0.0918 -0.1067398,0.19065 -0.1314798,0.21002 -0.097626,0.0764 z m 0.9796916,-1.42493 c 0.064305,-0.0926 0.1421115,-0.16028 0.1729077,-0.1504 0.070681,0.0227 -0.1062524,0.26924 -0.2140804,0.29832 -0.056185,0.0152 -0.045552,-0.0231 0.041173,-0.14792 z"
       id="path3753"
       inkscape:connector-curvature="0" />
  </g>
</svg>
